export const logo =  <svg
            xmlns="http://www.w3.org/2000/svg"
            width="200"
            height="55"
            viewBox="0 0 200 55"
            fill="none"
          >
            <path
              d="M16.2904 10.8293C14.1257 17.8228 9.62991 24.3108 9.62396 31.8217C9.19579 44.2387 25.6507 50.4709 33.334 40.284C36.908 35.7406 37.9071 29.8354 40.2204 24.6379C40.72 23.3831 41.3444 22.1105 42.2067 21.0936C44.8709 18.0131 49.9257 20.4275 49.6045 24.3941C49.4559 26.2257 49.2596 27.7778 48.6649 29.5321C46.0424 37.2095 42.8906 46.3022 35.5938 50.7683C35.4868 50.8337 35.3738 50.8932 35.2667 50.9645C22.4275 59.7421 3.33221 52.2669 0.311219 36.9122C-1.70476 25.7916 6.3651 15.2181 16.0822 10.6926C16.1536 10.7401 16.219 10.7818 16.2904 10.8293Z"
              fill="url(#paint0_linear_20_155)"
            />
            <path
              d="M52.2866 44.9999C54.2728 39.5288 56.8716 34.2599 58.4178 28.6283C63.199 11.5549 40.5416 2.74766 33.0723 19.036C31.877 21.6289 30.9493 24.3466 29.9205 27.0167C28.9215 29.5025 28.3089 32.238 26.6854 34.4146C25.2047 36.4067 22.261 36.603 20.4056 34.9855C18.5145 33.3322 18.7702 30.341 19.3352 28.1525C20.1201 25.0899 21.4463 22.2176 22.6892 19.3215C24.2651 15.6642 25.6269 12.2329 28.3268 9.21187C33.3756 3.56237 40.9995 0.345137 48.5936 1.23122C49.2121 1.30258 49.8424 1.38583 50.449 1.52856C74.5634 7.13642 73.3562 36.0202 52.4947 45.1248C52.4293 45.0832 52.3579 45.0475 52.2925 45.0059L52.2866 44.9999Z"
              fill="#02ABD5"
            />
            <path
              d="M18.4966 8.15931C20.7497 8.15931 22.5761 6.33284 22.5761 4.07978C22.5761 1.82672 20.7497 0.00025177 18.4966 0.00025177C16.2435 0.00025177 14.4171 1.82672 14.4171 4.07978C14.4171 6.33284 16.2435 8.15931 18.4966 8.15931Z"
              fill="#02ABD5"
            />
            <path
              d="M83.222 9.14598V32.077H75.2116V9.14598C75.2116 6.93376 77.0075 5.13782 79.2198 5.13782C81.432 5.13782 83.2279 6.93376 83.2279 9.14598H83.222Z"
              fill="#1F1F1F"
            />
            <path
              d="M105.6 32.0772H98.2199V20.9685C98.2199 19.8386 97.7501 19.2737 96.8165 19.2737C95.8828 19.2737 95.4368 19.8386 95.4368 20.9685V32.0772H88.0568V21.1053C88.0568 18.5422 88.9072 16.3776 90.602 14.6232C92.2969 12.8689 94.3783 11.9888 96.8403 11.9888C99.6531 11.9888 101.913 13.0057 103.608 15.0455C104.934 16.6392 105.6 18.8514 105.6 21.694V32.0713V32.0772Z"
              fill="#1F1F1F"
            />
            <path
              d="M120.58 16.764V24.5009H117.285V32.0771H109.905V15.3606C109.905 13.4814 110.227 11.8757 110.875 10.5436C111.689 8.84879 112.932 7.46318 114.598 6.3868C116.263 5.31637 117.993 4.78116 119.795 4.78116L120.586 4.799V12.5358C120.414 12.5239 120.289 12.518 120.211 12.518C119.278 12.518 118.558 12.8272 118.053 13.4457C117.547 14.0642 117.291 14.9443 117.291 16.092V16.764H120.586H120.58Z"
              fill="#1F1F1F"
            />
            <path
              d="M131.195 16.0919V32.077H123.815V16.0919C123.815 14.0521 125.468 12.3989 127.508 12.3989C129.548 12.3989 131.201 14.0521 131.201 16.0919H131.195ZM127.526 3.6214C128.525 3.6214 129.393 3.97226 130.119 4.67994C130.85 5.38166 131.213 6.21422 131.213 7.17761C131.213 8.20641 130.868 9.04491 130.178 9.70501C129.488 10.3651 128.602 10.6922 127.526 10.6922C126.45 10.6922 125.563 10.3651 124.874 9.70501C124.184 9.04491 123.839 8.20641 123.839 7.17761C123.839 6.22017 124.202 5.38761 124.933 4.67994C125.665 3.97821 126.527 3.6214 127.526 3.6214Z"
              fill="#1F1F1F"
            />
            <path
              d="M153.079 32.0772H145.699V20.9685C145.699 19.8386 145.23 19.2737 144.296 19.2737C143.362 19.2737 142.916 19.8386 142.916 20.9685V32.0772H135.536V21.1053C135.536 18.5422 136.387 16.3776 138.082 14.6232C139.776 12.8689 141.858 11.9888 144.32 11.9888C147.133 11.9888 149.392 13.0057 151.087 15.0455C152.413 16.6392 153.079 18.8514 153.079 21.694V32.0713V32.0772Z"
              fill="#1F1F1F"
            />
            <path
              d="M164.759 16.0919V32.077H157.379V16.0919C157.379 14.0521 159.032 12.3989 161.072 12.3989C163.112 12.3989 164.765 14.0521 164.765 16.0919H164.759ZM161.09 3.6214C162.089 3.6214 162.957 3.97226 163.683 4.67994C164.414 5.38166 164.777 6.21422 164.777 7.17761C164.777 8.20641 164.432 9.04491 163.742 9.70501C163.052 10.3651 162.166 10.6922 161.09 10.6922C160.013 10.6922 159.127 10.3651 158.438 9.70501C157.748 9.04491 157.403 8.20641 157.403 7.17761C157.403 6.22017 157.766 5.38761 158.497 4.67994C159.228 3.97821 160.091 3.6214 161.09 3.6214Z"
              fill="#1F1F1F"
            />
            <path
              d="M175.671 8.8308V12.6784H178.984V20.4747H175.671C175.671 22.0387 175.915 23.121 176.409 23.7098C176.902 24.3045 177.806 24.5959 179.121 24.5959V32.3505C178.74 32.3624 178.455 32.3684 178.27 32.3684C176.599 32.3684 175.023 31.9818 173.543 31.2028C172.062 30.4238 170.872 29.3771 169.98 28.045C168.85 26.3502 168.286 24.0963 168.286 21.2954V8.8308C168.286 6.79104 169.939 5.13782 171.978 5.13782C174.018 5.13782 175.671 6.79104 175.671 8.8308Z"
              fill="#1F1F1F"
            />
            <path
              d="M185.169 40.7001V34.2894C186.168 34.7116 187.042 34.9198 187.791 34.9198C190.188 34.9198 191.74 33.5698 192.448 30.8759C191.157 31.6371 189.896 32.0177 188.659 32.0177C186.828 32.0177 185.323 31.3398 184.14 29.9779C182.956 28.6161 182.362 26.8856 182.362 24.7804V16.098C182.362 14.0583 184.015 12.405 186.055 12.405C188.094 12.405 189.748 14.0583 189.748 16.098V22.9845C189.748 24.156 190.235 24.7388 191.211 24.7388C192.186 24.7388 192.614 24.0965 192.614 22.8061V16.098C192.614 14.0583 194.267 12.405 196.307 12.405C198.347 12.405 200 14.0583 200 16.098V29.972C200 33.2487 199.078 35.8891 197.235 37.9051C195.04 40.3016 192.382 41.497 189.26 41.497C187.892 41.497 186.53 41.2353 185.175 40.706L185.169 40.7001Z"
              fill="#1F1F1F"
            />
            <path
              d="M166.174 38.0179C164.83 39.6235 162.922 40.8426 162.089 42.8229C160.602 46.058 164.26 49.525 167.417 47.6815C168.862 46.8787 169.784 45.4277 170.968 44.3096C171.235 44.0361 171.544 43.7685 171.883 43.596C172.93 43.0787 173.995 44.274 173.471 45.2849C173.227 45.7488 173.007 46.1413 172.657 46.5397C171.11 48.2762 169.273 50.3278 166.852 50.7025C166.817 50.7025 166.781 50.7084 166.745 50.7203C162.38 51.6183 158.164 47.5269 159.068 43.1381C159.764 39.9744 163.064 38.0774 166.133 37.9584C166.145 37.9763 166.157 38.0001 166.174 38.0179Z"
              fill="#1F1F1F"
            />
            <path
              d="M171.901 51.0296C173.031 49.8045 174.304 48.6984 175.333 47.3842C178.484 43.4057 173.477 38.571 169.701 42.0439C169.1 42.597 168.553 43.2095 167.982 43.8042C167.441 44.3513 166.977 45.0054 166.305 45.3979C165.693 45.7607 164.896 45.4871 164.587 44.8508C164.271 44.2026 164.67 43.4414 165.062 42.93C165.609 42.2104 166.276 41.5979 166.924 40.9675C167.744 40.1766 168.482 39.4214 169.534 38.9218C171.497 37.9882 173.864 37.9822 175.773 39.0586C175.927 39.1478 176.082 39.237 176.231 39.3441C181.981 43.495 178.467 50.988 171.943 51.0831C171.931 51.0653 171.913 51.0474 171.901 51.0296Z"
              fill="#1F1F1F"
            />
            <path
              d="M87.3788 45.7071V48.1394C87.3788 48.4605 87.3491 48.7222 87.2837 48.9125C87.2183 49.1087 87.1053 49.2812 86.9328 49.4358C86.7604 49.5904 86.5463 49.7391 86.2787 49.8877C85.5115 50.304 84.7741 50.6073 84.0605 50.7976C83.3528 50.9879 82.5797 51.083 81.7412 51.083C80.7659 51.083 79.8799 50.9344 79.077 50.6311C78.2742 50.3337 77.5903 49.8937 77.0254 49.3228C76.4604 48.7519 76.0263 48.0561 75.723 47.2473C75.4197 46.4326 75.2711 45.5228 75.2711 44.5177C75.2711 43.5127 75.4197 42.6266 75.7111 41.806C76.0025 40.9853 76.4366 40.2895 77.0075 39.7186C77.5784 39.1477 78.2742 38.7077 79.0949 38.4044C79.9156 38.1011 80.8433 37.9524 81.8839 37.9524C82.7403 37.9524 83.4955 38.0654 84.1497 38.2974C84.8098 38.5233 85.3391 38.8147 85.7494 39.1596C86.1597 39.5046 86.469 39.8733 86.6771 40.2598C86.8852 40.6463 86.9863 40.9913 86.9863 41.2886C86.9863 41.6097 86.8674 41.8892 86.6295 42.1152C86.3917 42.3412 86.1003 42.4601 85.7672 42.4601C85.5829 42.4601 85.4045 42.4185 85.232 42.3293C85.0596 42.2401 84.9168 42.1212 84.8038 41.9665C84.4887 41.473 84.2151 41.0924 84.001 40.8426C83.781 40.5869 83.4837 40.3728 83.1149 40.2003C82.7462 40.0279 82.2705 39.9387 81.6937 39.9387C81.1168 39.9387 80.5697 40.0398 80.0999 40.2479C79.6301 40.4501 79.2317 40.7474 78.8986 41.1399C78.5656 41.5324 78.3099 42.0082 78.1374 42.5731C77.959 43.1381 77.8758 43.7625 77.8758 44.4523C77.8758 45.939 78.2207 47.0868 78.9046 47.8896C79.5885 48.6924 80.54 49.0909 81.765 49.0909C82.3597 49.0909 82.9187 49.0136 83.442 48.8589C83.9653 48.7043 84.4946 48.4783 85.0298 48.1929V46.1353H83.0376C82.5559 46.1353 82.1991 46.0639 81.9494 45.9212C81.7055 45.7785 81.5807 45.5287 81.5807 45.1838C81.5807 44.8983 81.6818 44.6664 81.8899 44.4821C82.0921 44.2977 82.3716 44.2026 82.7225 44.2026H85.6424C85.9992 44.2026 86.3025 44.2323 86.5522 44.2977C86.802 44.3631 86.9982 44.4999 87.1528 44.7199C87.3075 44.94 87.3848 45.267 87.3848 45.7071H87.3788Z"
              fill="#1F1F1F"
            />
            <path
              d="M93.2841 45.4394H92.3861V49.5189C92.3861 50.0541 92.2672 50.4526 92.0293 50.7023C91.7914 50.958 91.4822 51.0829 91.1016 51.0829C90.6912 51.0829 90.3761 50.9521 90.1501 50.6845C89.9241 50.4169 89.8111 50.0303 89.8111 49.513V39.7482C89.8111 39.1952 89.936 38.7908 90.1858 38.547C90.4355 38.2972 90.834 38.1723 91.387 38.1723H95.5677C96.1445 38.1723 96.6381 38.1961 97.0484 38.2437C97.4587 38.2913 97.8274 38.3924 98.1545 38.541C98.553 38.7075 98.9038 38.9454 99.2131 39.2606C99.5164 39.5698 99.7483 39.9326 99.9088 40.3489C100.069 40.7592 100.147 41.1993 100.147 41.6631C100.147 42.6087 99.8791 43.3639 99.3439 43.9289C98.8087 44.4938 97.9999 44.8982 96.9176 45.1301C97.3755 45.374 97.8096 45.7308 98.2259 46.2065C98.6422 46.6823 99.0109 47.1818 99.3379 47.717C99.665 48.2522 99.9207 48.7339 100.099 49.1621C100.283 49.5903 100.373 49.8876 100.373 50.0482C100.373 50.2087 100.319 50.3812 100.212 50.5477C100.105 50.7142 99.9624 50.8391 99.7721 50.9402C99.5877 51.0353 99.3736 51.0829 99.1298 51.0829C98.8384 51.0829 98.6005 51.0175 98.4043 50.8807C98.2081 50.7439 98.0415 50.5715 97.8988 50.3633C97.7561 50.1552 97.5658 49.8519 97.322 49.4475L96.2932 47.7348C95.9245 47.1045 95.5914 46.6287 95.3001 46.2957C95.0087 45.9686 94.7113 45.7427 94.414 45.6178C94.1166 45.4988 93.736 45.4334 93.2781 45.4334L93.2841 45.4394ZM94.7529 40.1051H92.3802V43.5958H94.6816C95.3 43.5958 95.8174 43.5423 96.2397 43.4353C96.6619 43.3282 96.983 43.1439 97.203 42.8882C97.4231 42.6325 97.5361 42.2756 97.5361 41.8296C97.5361 41.4788 97.4469 41.1695 97.2685 40.9019C97.09 40.6343 96.8403 40.4321 96.5251 40.3013C96.2278 40.1764 95.6331 40.111 94.7529 40.111V40.1051Z"
              fill="#1F1F1F"
            />
            <path
              d="M110.702 49.4299L110.096 47.8361H104.934L104.327 49.4656C104.089 50.1019 103.887 50.53 103.721 50.7501C103.554 50.9701 103.281 51.0831 102.9 51.0831C102.579 51.0831 102.293 50.9642 102.044 50.7263C101.794 50.4884 101.669 50.2208 101.669 49.9235C101.669 49.751 101.699 49.5726 101.758 49.3882C101.818 49.2039 101.913 48.9482 102.044 48.6152L105.291 40.3728C105.386 40.135 105.493 39.8495 105.624 39.5224C105.755 39.1894 105.891 38.9159 106.04 38.6958C106.189 38.4758 106.379 38.2974 106.623 38.1606C106.861 38.0238 107.158 37.9584 107.509 37.9584C107.86 37.9584 108.163 38.0238 108.407 38.1606C108.645 38.2974 108.841 38.4699 108.99 38.6839C109.138 38.898 109.263 39.124 109.364 39.3738C109.465 39.6176 109.596 39.9447 109.751 40.355L113.069 48.5438C113.331 49.1682 113.462 49.6202 113.462 49.9056C113.462 50.1911 113.337 50.4706 113.093 50.7144C112.849 50.9582 112.552 51.0831 112.207 51.0831C112.005 51.0831 111.832 51.0474 111.689 50.9761C111.547 50.9047 111.422 50.8036 111.327 50.6847C111.226 50.5598 111.125 50.3695 111.012 50.1138C110.899 49.858 110.803 49.6321 110.72 49.4358L110.702 49.4299ZM105.612 45.9093H109.406L107.491 40.6702L105.612 45.9093Z"
              fill="#1F1F1F"
            />
            <path
              d="M120.259 45.9209H117.904V49.5128C117.904 50.0242 117.785 50.4167 117.541 50.6843C117.297 50.9519 116.994 51.0828 116.625 51.0828C116.257 51.0828 115.93 50.9519 115.692 50.6903C115.454 50.4286 115.335 50.0421 115.335 49.5366V39.754C115.335 39.1891 115.466 38.7847 115.727 38.5409C115.989 38.2971 116.399 38.1781 116.964 38.1781H120.265C121.24 38.1781 121.989 38.2554 122.513 38.4041C123.03 38.5468 123.482 38.7907 123.857 39.1237C124.237 39.4567 124.523 39.867 124.719 40.3547C124.915 40.8423 125.01 41.3835 125.01 41.9901C125.01 43.2805 124.612 44.2617 123.815 44.9278C123.018 45.5938 121.835 45.9269 120.259 45.9269V45.9209ZM119.634 40.1049H117.904V43.9822H119.634C120.241 43.9822 120.747 43.9168 121.151 43.7919C121.555 43.6671 121.87 43.4589 122.079 43.1675C122.293 42.8761 122.4 42.5015 122.4 42.0317C122.4 41.4727 122.233 41.0148 121.906 40.6639C121.537 40.2893 120.776 40.099 119.629 40.099L119.634 40.1049Z"
              fill="#1F1F1F"
            />
            <path
              d="M129.75 39.5162V43.1498H135.298V39.5162C135.298 38.9989 135.417 38.6064 135.649 38.3447C135.881 38.0831 136.19 37.9522 136.571 37.9522C136.952 37.9522 137.273 38.0831 137.511 38.3388C137.749 38.5945 137.867 38.987 137.867 39.5103V49.5069C137.867 50.0303 137.749 50.4227 137.505 50.6844C137.261 50.9461 136.952 51.0769 136.571 51.0769C136.19 51.0769 135.875 50.9461 135.643 50.6844C135.411 50.4227 135.298 50.0303 135.298 49.5129V45.2431H129.75V49.5129C129.75 50.0362 129.631 50.4287 129.387 50.6904C129.143 50.952 128.834 51.0828 128.454 51.0828C128.073 51.0828 127.758 50.952 127.526 50.6904C127.294 50.4287 127.181 50.0362 127.181 49.5188V39.5222C127.181 39.0048 127.294 38.6123 127.526 38.3507C127.752 38.089 128.061 37.9582 128.454 37.9582C128.846 37.9582 129.155 38.089 129.393 38.3447C129.631 38.6004 129.75 38.9929 129.75 39.5162Z"
              fill="#1F1F1F"
            />
            <path
              d="M140.734 49.5129V39.5162C140.734 38.9989 140.853 38.6064 141.091 38.3447C141.329 38.0831 141.632 37.9522 142.006 37.9522C142.381 37.9522 142.708 38.0831 142.946 38.3388C143.184 38.5945 143.303 38.987 143.303 39.5103V49.5069C143.303 50.0303 143.184 50.4227 142.946 50.6844C142.708 50.9461 142.393 51.0769 142.006 51.0769C141.62 51.0769 141.335 50.9461 141.091 50.6844C140.853 50.4227 140.734 50.0303 140.734 49.5129Z"
              fill="#1F1F1F"
            />
            <path
              d="M156.992 46.8546C156.992 47.259 156.891 47.6931 156.695 48.1689C156.499 48.6387 156.184 49.1026 155.756 49.5545C155.327 50.0065 154.78 50.3752 154.12 50.6606C153.454 50.9461 152.681 51.0828 151.801 51.0828C151.129 51.0828 150.522 51.0174 149.975 50.8925C149.428 50.7677 148.929 50.5655 148.483 50.2979C148.037 50.0303 147.626 49.6734 147.252 49.2393C146.919 48.8409 146.633 48.3949 146.395 47.9013C146.157 47.4077 145.979 46.8784 145.86 46.3194C145.741 45.7604 145.682 45.1657 145.682 44.5354C145.682 43.5125 145.83 42.5967 146.128 41.7939C146.425 40.9851 146.853 40.2953 147.406 39.7184C147.959 39.1416 148.607 38.7075 149.357 38.4042C150.1 38.1069 150.897 37.9522 151.735 37.9522C152.764 37.9522 153.68 38.1544 154.477 38.5648C155.28 38.9751 155.892 39.4806 156.32 40.0812C156.749 40.6818 156.963 41.2527 156.963 41.7939C156.963 42.0853 156.862 42.3469 156.653 42.5729C156.445 42.7989 156.196 42.9119 155.898 42.9119C155.571 42.9119 155.321 42.8346 155.161 42.68C154.994 42.5253 154.816 42.2577 154.614 41.8771C154.281 41.2468 153.882 40.777 153.43 40.4677C152.978 40.1585 152.419 39.9979 151.753 39.9979C150.695 39.9979 149.856 40.3964 149.232 41.1992C148.607 42.002 148.292 43.1438 148.292 44.6186C148.292 45.6058 148.429 46.4265 148.709 47.0806C148.988 47.7348 149.38 48.2224 149.886 48.5495C150.391 48.8706 150.986 49.0371 151.67 49.0371C152.407 49.0371 153.032 48.8528 153.543 48.49C154.055 48.1213 154.441 47.5861 154.697 46.8784C154.804 46.5454 154.941 46.2719 155.101 46.0578C155.262 45.8496 155.524 45.7426 155.88 45.7426C156.184 45.7426 156.451 45.8496 156.665 46.0637C156.885 46.2778 156.992 46.5454 156.992 46.8606V46.8546Z"
              fill="#1F1F1F"
            />
            <defs>
              <linearGradient
                id="paint0_linear_20_155"
                x1="28.5527"
                y1="30.2636"
                x2="47.1069"
                y2="23.9481"
                gradientUnits="userSpaceOnUse"
              >
                <stop stopColor="#02ABD5" />
                <stop offset="1" stopColor="#01F4E6" />
              </linearGradient>
            </defs>
          </svg>
