<svg width="220" height="220" viewBox="0 0 220 220" fill="none" xmlns="http://www.w3.org/2000/svg">
<rect width="220" height="220" rx="110" fill="#02ABD5"/>
<path d="M144.727 82.7735L148.654 78.8462L140.8 70.9916L136.873 74.9189L144.727 82.7735ZM136.873 74.9189L75.2732 136.526L83.1269 144.381L144.727 82.7735L136.873 74.9189Z" fill="white"/>
<path d="M123.762 84.978L129.315 84.978L129.315 73.8706L123.762 73.8706L123.762 84.978ZM123.762 73.8706L79.2 73.8706L79.2 84.978L123.762 84.978L123.762 73.8706Z" fill="white"/>
<path d="M134.743 141.154L134.743 146.707L145.85 146.707L145.85 141.154L134.743 141.154ZM134.743 94.7197L134.743 141.154L145.85 141.154L145.85 94.7197L134.743 94.7197Z" fill="white"/>
</svg>
