<svg width="22" height="25" viewBox="0 0 22 25" fill="none" xmlns="http://www.w3.org/2000/svg">
<path d="M19.1256 6.12948L20.0445 5.21045L18.2068 3.3724L17.2879 4.29142L19.1256 6.12948ZM17.2879 4.29142L2.87425 18.7081L4.71192 20.5461L19.1256 6.12948L17.2879 4.29142Z" fill="#02ABD5"/>
<path d="M14.22 6.64478L15.5195 6.64478L15.5195 4.04565L14.22 4.04565L14.22 6.64478ZM14.22 4.04565L3.79304 4.04565L3.79304 6.64478L14.22 6.64478L14.22 4.04565Z" fill="#02ABD5"/>
<path d="M16.7895 19.7898L16.7895 21.0893L19.3887 21.0893L19.3887 19.7898L16.7895 19.7898ZM16.7895 8.92383L16.7895 19.7898L19.3887 19.7898L19.3887 8.92383L16.7895 8.92383Z" fill="#02ABD5"/>
</svg>
