<svg width="24" height="24" viewBox="0 0 24 24" fill="none" xmlns="http://www.w3.org/2000/svg">
<path opacity="0.06" fill-rule="evenodd" clip-rule="evenodd" d="M7.76863 2.60888C8.43578 1.33299 9.96286 0.378418 11.6839 0.378418C13.4049 0.378418 14.9332 1.33182 15.5992 2.60888C16.9732 2.17774 18.727 2.58317 19.9456 3.80063C21.1631 5.0181 21.5685 6.77185 21.1374 8.14705C22.4132 8.8142 23.3678 10.3413 23.3678 12.0623C23.3678 13.7834 22.4144 15.3104 21.1374 15.9776C21.5685 17.3516 21.1631 19.1054 19.9456 20.324C18.7281 21.5415 16.9744 21.9469 15.5992 21.5158C14.932 22.7917 13.4049 23.7462 11.6839 23.7462C9.96286 23.7462 8.43578 22.7928 7.76863 21.5158C6.3946 21.9469 4.63968 21.5415 3.42222 20.324C2.20475 19.1065 1.79932 17.3516 2.23046 15.9776C0.954575 15.3104 0 13.7834 0 12.0623C0 10.3413 0.953406 8.81303 2.23046 8.14705C1.79932 6.77302 2.20475 5.01926 3.42222 3.80063C4.63968 2.58317 6.3946 2.17891 7.76863 2.60888Z" fill="#1F1F1F"/>
<path opacity="0.75" d="M10.1143 16.7501C9.81517 16.7501 9.51607 16.6356 9.28823 16.4077L5.78306 12.9026C5.32622 12.4457 5.32622 11.7073 5.78306 11.2505C6.2399 10.7936 6.97832 10.7936 7.43516 11.2505L10.1143 13.9296L15.1302 8.91368C15.587 8.45683 16.3254 8.45683 16.7823 8.91368C17.2391 9.37052 17.2391 10.1089 16.7823 10.5658L10.9403 16.4077C10.7125 16.6356 10.4134 16.7501 10.1143 16.7501Z" fill="#1F1F1F"/>
</svg>
