<svg width="74" height="76" viewBox="0 0 74 76" fill="none" xmlns="http://www.w3.org/2000/svg">
<g id="Group 25">
<path id="Line 1" d="M69.7269 11.7735L73.6537 7.84619L65.8 -0.00842911L61.8732 3.91888L69.7269 11.7735ZM61.8732 3.91888L0.273199 65.5262L8.12689 73.3808L69.7269 11.7735L61.8732 3.91888Z" fill="white"/>
<path id="Line 2" d="M48.7617 13.978L54.3154 13.978L54.3154 2.87059L48.7617 2.87059L48.7617 13.978ZM48.7617 2.87059L4.20003 2.87059L4.20003 13.978L48.7617 13.978L48.7617 2.87059Z" fill="white"/>
<path id="Line 3" d="M59.7427 70.1536L59.7427 75.7073L70.8501 75.7073L70.8501 70.1536L59.7427 70.1536ZM59.7427 23.7197L59.7427 70.1536L70.8501 70.1536L70.8501 23.7197L59.7427 23.7197Z" fill="white"/>
</g>
</svg>
