<svg width="66" height="69" viewBox="0 0 66 69" fill="none" xmlns="http://www.w3.org/2000/svg">
<path d="M59.8743 4.33301C58.4912 4.33301 36.1742 4.33301 34.791 4.33301C31.824 4.33301 29.416 6.74101 29.416 9.70801C29.416 12.675 31.824 15.083 34.791 15.083C36.1742 15.083 58.4912 15.083 59.8743 15.083C62.8413 15.083 65.2493 12.675 65.2493 9.70801C65.2493 6.74101 62.8413 4.33301 59.8743 4.33301Z" fill="#02ABD5"/>
<path d="M34.791 8.33301H34.7994H34.8082H34.8175H34.8272H34.8375H34.8482H34.8594H34.871H34.8831H34.8957H34.9087H34.9222H34.9362H34.9506H34.9654H34.9807H34.9965H35.0127H35.0293H35.0464H35.064H35.0819H35.1004H35.1192H35.1385H35.1582H35.1783H35.1989H35.2199H35.2413H35.2632H35.2855H35.3081H35.3312H35.3548H35.3787H35.4031H35.4278H35.453H35.4785H35.5045H35.5309H35.5577H35.5848H35.6124H35.6404H35.6687H35.6975H35.7266H35.7562H35.7861H35.8164H35.8471H35.8781H35.9096H35.9414H35.9736H36.0061H36.0391H36.0724H36.106H36.1401H36.1744H36.2092H36.2443H36.2798H36.3156H36.3518H36.3883H36.4252H36.4625H36.5H36.538H36.5762H36.6148H36.6538H36.6931H36.7327H36.7726H36.8129H36.8535H36.8945H36.9357H36.9773H37.0192H37.0614H37.104H37.1469H37.19H37.2335H37.2773H37.3214H37.3659H37.4106H37.4556H37.5009H37.5466H37.5925H37.6387H37.6852H37.732H37.7791H37.8265H37.8742H37.9221H37.9704H38.0189H38.0677H38.1168H38.1661H38.2157H38.2656H38.3158H38.3662H38.4169H38.4679H38.5191H38.5706H38.6223H38.6743H38.7266H38.7791H38.8318H38.8848H38.9381H38.9916H39.0453H39.0993H39.1535H39.208H39.2627H39.3176H39.3728H39.4282H39.4838H39.5396H39.5957H39.652H39.7085H39.7652H39.8222H39.8793H39.9367H39.9943H40.0521H40.1101H40.1683H40.2268H40.2854H40.3442H40.4032H40.4624H40.5218H40.5814H40.6412H40.7012H40.7614H40.8217H40.8823H40.943H41.0039H41.065H41.1262H41.1876H41.2492H41.311H41.373H41.4351H41.4973H41.5598H41.6224H41.6851H41.748H41.8111H41.8743H41.9377H42.0012H42.0649H42.1287H42.1926H42.2567H42.321H42.3853H42.4499H42.5145H42.5793H42.6442H42.7092H42.7744H42.8397H42.9051H42.9707H43.0363H43.1021H43.168H43.234H43.3001H43.3664H43.4327H43.4992H43.5657H43.6324H43.6991H43.766H43.8329H43.9H43.9671H44.0343H44.1017H44.1691H44.2366H44.3042H44.3718H44.4396H44.5074H44.5753H44.6433H44.7113H44.7794H44.8476H44.9159H44.9842H45.0526H45.121H45.1895H45.2581H45.3267H45.3954H45.4641H45.5329H45.6017H45.6706H45.7395H45.8085H45.8775H45.9465H46.0156H46.0847H46.1538H46.223H46.2922H46.3615H46.4307H46.5H46.5693H46.6387H46.708H46.7774H46.8468H46.9161H46.9855H47.055H47.1244H47.1938H47.2632H47.3327H47.4021H47.4715H47.541H47.6104H47.6798H47.7492H47.8186H47.888H47.9574H48.0267H48.096H48.1654H48.2346H48.3039H48.3731H48.4424H48.5115H48.5807H48.6498H48.7189H48.7879H48.8569H48.9259H48.9948H49.0637H49.1325H49.2013H49.27H49.3387H49.4073H49.4758H49.5444H49.6128H49.6812H49.7495H49.8178H49.8859H49.9541H50.0221H50.0901H50.158H50.2258H50.2935H50.3612H50.4288H50.4963H50.5637H50.631H50.6983H50.7654H50.8324H50.8994H50.9662H51.033H51.0997H51.1662H51.2327H51.299H51.3652H51.4313H51.4974H51.5633H51.629H51.6947H51.7602H51.8257H51.8909H51.9561H52.0212H52.0861H52.1509H52.2155H52.28H52.3444H52.4086H52.4727H52.5367H52.6005H52.6642H52.7277H52.7911H52.8543H52.9173H52.9803H53.043H53.1056H53.168H53.2303H53.2924H53.3543H53.4161H53.4777H53.5391H53.6004H53.6615H53.7224H53.7831H53.8436H53.904H53.9642H54.0241H54.0839H54.1435H54.2029H54.2622H54.3212H54.38H54.4386H54.497H54.5552H54.6132H54.671H54.7286H54.786H54.8432H54.9001H54.9569H55.0134H55.0697H55.1257H55.1816H55.2372H55.2926H55.3478H55.4027H55.4574H55.5118H55.5661H55.62H55.6738H55.7273H55.7805H55.8335H55.8863H55.9388H55.991H56.043H56.0948H56.1463H56.1975H56.2485H56.2992H56.3496H56.3997H56.4496H56.4993H56.5486H56.5977H56.6465H56.695H56.7432H56.7912H56.8389H56.8862H56.9333H56.9802H57.0267H57.0729H57.1188H57.1644H57.2098H57.2548H57.2995H57.3439H57.388H57.4318H57.4753H57.5185H57.5614H57.6039H57.6462H57.6881H57.7296H57.7709H57.8119H57.8525H57.8927H57.9327H57.9723H58.0116H58.0505H58.0891H58.1274H58.1653H58.2029H58.2401H58.277H58.3136H58.3497H58.3856H58.421H58.4562H58.4909H58.5253H58.5593H58.593H58.6263H58.6592H58.6918H58.724H58.7558H58.7872H58.8183H58.849H58.8793H58.9092H58.9387H58.9679H58.9966H59.025H59.0529H59.0805H59.1077H59.1345H59.1608H59.1868H59.2124H59.2376H59.2623H59.2867H59.3106H59.3341H59.3572H59.3799H59.4022H59.424H59.4454H59.4664H59.487H59.5072H59.5269H59.5462H59.565H59.5834H59.6014H59.6189H59.636H59.6527H59.6689H59.6846H59.6999H59.7148H59.7292H59.7431H59.7566H59.7697H59.7822H59.7943H59.806H59.8172H59.8279H59.8381H59.8479H59.8572H59.866H59.8743C60.6322 8.33301 61.2493 8.95015 61.2493 9.70801C61.2493 10.4659 60.6322 11.083 59.8743 11.083H59.866H59.8572H59.8479H59.8381H59.8279H59.8172H59.806H59.7943H59.7822H59.7697H59.7566H59.7431H59.7292H59.7148H59.6999H59.6846H59.6689H59.6527H59.636H59.6189H59.6014H59.5834H59.565H59.5462H59.5269H59.5072H59.487H59.4664H59.4454H59.424H59.4022H59.3799H59.3572H59.3341H59.3106H59.2867H59.2623H59.2376H59.2124H59.1868H59.1608H59.1345H59.1077H59.0805H59.0529H59.025H58.9966H58.9679H58.9387H58.9092H58.8793H58.849H58.8183H58.7872H58.7558H58.724H58.6918H58.6592H58.6263H58.593H58.5593H58.5253H58.4909H58.4562H58.421H58.3856H58.3497H58.3136H58.277H58.2401H58.2029H58.1653H58.1274H58.0891H58.0505H58.0116H57.9723H57.9327H57.8927H57.8525H57.8119H57.7709H57.7296H57.6881H57.6462H57.6039H57.5614H57.5185H57.4753H57.4318H57.388H57.3439H57.2995H57.2548H57.2098H57.1644H57.1188H57.0729H57.0267H56.9802H56.9333H56.8862H56.8389H56.7912H56.7432H56.695H56.6465H56.5977H56.5486H56.4993H56.4496H56.3997H56.3496H56.2992H56.2485H56.1975H56.1463H56.0948H56.043H55.991H55.9388H55.8863H55.8335H55.7805H55.7273H55.6738H55.62H55.5661H55.5118H55.4574H55.4027H55.3478H55.2926H55.2372H55.1816H55.1257H55.0697H55.0134H54.9569H54.9001H54.8432H54.786H54.7286H54.671H54.6132H54.5552H54.497H54.4386H54.38H54.3212H54.2622H54.2029H54.1435H54.0839H54.0241H53.9642H53.904H53.8436H53.7831H53.7224H53.6615H53.6004H53.5391H53.4777H53.4161H53.3543H53.2924H53.2303H53.168H53.1056H53.043H52.9803H52.9173H52.8543H52.7911H52.7277H52.6642H52.6005H52.5367H52.4727H52.4086H52.3444H52.28H52.2155H52.1509H52.0861H52.0212H51.9561H51.8909H51.8257H51.7602H51.6947H51.629H51.5633H51.4974H51.4313H51.3652H51.299H51.2327H51.1662H51.0997H51.033H50.9662H50.8994H50.8324H50.7654H50.6983H50.631H50.5637H50.4963H50.4288H50.3612H50.2935H50.2258H50.158H50.0901H50.0221H49.9541H49.8859H49.8178H49.7495H49.6812H49.6128H49.5444H49.4758H49.4073H49.3387H49.27H49.2013H49.1325H49.0637H48.9948H48.9259H48.8569H48.7879H48.7189H48.6498H48.5807H48.5115H48.4424H48.3731H48.3039H48.2346H48.1654H48.096H48.0267H47.9574H47.888H47.8186H47.7492H47.6798H47.6104H47.541H47.4715H47.4021H47.3327H47.2632H47.1938H47.1244H47.055H46.9855H46.9161H46.8468H46.7774H46.708H46.6387H46.5693H46.5H46.4307H46.3615H46.2922H46.223H46.1538H46.0847H46.0156H45.9465H45.8775H45.8085H45.7395H45.6706H45.6017H45.5329H45.4641H45.3954H45.3267H45.2581H45.1895H45.121H45.0526H44.9842H44.9159H44.8476H44.7794H44.7113H44.6433H44.5753H44.5074H44.4396H44.3718H44.3042H44.2366H44.1691H44.1017H44.0343H43.9671H43.9H43.8329H43.766H43.6991H43.6324H43.5657H43.4992H43.4327H43.3664H43.3001H43.234H43.168H43.1021H43.0363H42.9707H42.9051H42.8397H42.7744H42.7092H42.6442H42.5793H42.5145H42.4499H42.3853H42.321H42.2567H42.1926H42.1287H42.0649H42.0012H41.9377H41.8743H41.8111H41.748H41.6851H41.6224H41.5598H41.4973H41.4351H41.373H41.311H41.2492H41.1876H41.1262H41.065H41.0039H40.943H40.8823H40.8217H40.7614H40.7012H40.6412H40.5814H40.5218H40.4624H40.4032H40.3442H40.2854H40.2268H40.1683H40.1101H40.0521H39.9943H39.9367H39.8793H39.8222H39.7652H39.7085H39.652H39.5957H39.5396H39.4838H39.4282H39.3728H39.3176H39.2627H39.208H39.1535H39.0993H39.0453H38.9916H38.9381H38.8848H38.8318H38.7791H38.7266H38.6743H38.6223H38.5706H38.5191H38.4679H38.4169H38.3662H38.3158H38.2656H38.2157H38.1661H38.1168H38.0677H38.0189H37.9704H37.9221H37.8742H37.8265H37.7791H37.732H37.6852H37.6387H37.5925H37.5466H37.5009H37.4556H37.4106H37.3659H37.3214H37.2773H37.2335H37.19H37.1469H37.104H37.0614H37.0192H36.9773H36.9357H36.8945H36.8535H36.8129H36.7726H36.7327H36.6931H36.6538H36.6148H36.5762H36.538H36.5H36.4625H36.4252H36.3883H36.3518H36.3156H36.2798H36.2443H36.2092H36.1744H36.1401H36.106H36.0724H36.0391H36.0061H35.9736H35.9414H35.9096H35.8781H35.8471H35.8164H35.7861H35.7562H35.7266H35.6975H35.6687H35.6404H35.6124H35.5848H35.5577H35.5309H35.5045H35.4785H35.453H35.4278H35.4031H35.3787H35.3548H35.3312H35.3081H35.2855H35.2632H35.2413H35.2199H35.1989H35.1783H35.1582H35.1385H35.1192H35.1004H35.0819H35.064H35.0464H35.0293H35.0127H34.9965H34.9807H34.9654H34.9506H34.9362H34.9222H34.9087H34.8957H34.8831H34.871H34.8594H34.8482H34.8375H34.8272H34.8175H34.8082H34.7994H34.791C34.0332 11.083 33.416 10.4659 33.416 9.70801C33.416 8.95015 34.0332 8.33301 34.791 8.33301Z" stroke="white" stroke-opacity="0.1" stroke-width="8"/>
<path d="M59.8743 29.417C58.4912 29.417 36.1742 29.417 34.791 29.417C31.824 29.417 29.416 31.825 29.416 34.792C29.416 37.759 31.824 40.167 34.791 40.167C36.1742 40.167 58.4912 40.167 59.8743 40.167C62.8413 40.167 65.2493 37.759 65.2493 34.792C65.2493 31.825 62.8413 29.417 59.8743 29.417Z" fill="#02ABD5"/>
<path d="M34.791 33.417H34.7994H34.8082H34.8175H34.8272H34.8375H34.8482H34.8594H34.871H34.8831H34.8957H34.9087H34.9222H34.9362H34.9506H34.9654H34.9807H34.9965H35.0127H35.0293H35.0464H35.064H35.0819H35.1004H35.1192H35.1385H35.1582H35.1783H35.1989H35.2199H35.2413H35.2632H35.2855H35.3081H35.3312H35.3548H35.3787H35.4031H35.4278H35.453H35.4785H35.5045H35.5309H35.5577H35.5848H35.6124H35.6404H35.6687H35.6975H35.7266H35.7562H35.7861H35.8164H35.8471H35.8781H35.9096H35.9414H35.9736H36.0061H36.0391H36.0724H36.106H36.1401H36.1744H36.2092H36.2443H36.2798H36.3156H36.3518H36.3883H36.4252H36.4625H36.5H36.538H36.5762H36.6148H36.6538H36.6931H36.7327H36.7726H36.8129H36.8535H36.8945H36.9357H36.9773H37.0192H37.0614H37.104H37.1469H37.19H37.2335H37.2773H37.3214H37.3659H37.4106H37.4556H37.5009H37.5466H37.5925H37.6387H37.6852H37.732H37.7791H37.8265H37.8742H37.9221H37.9704H38.0189H38.0677H38.1168H38.1661H38.2157H38.2656H38.3158H38.3662H38.4169H38.4679H38.5191H38.5706H38.6223H38.6743H38.7266H38.7791H38.8318H38.8848H38.9381H38.9916H39.0453H39.0993H39.1535H39.208H39.2627H39.3176H39.3728H39.4282H39.4838H39.5396H39.5957H39.652H39.7085H39.7652H39.8222H39.8793H39.9367H39.9943H40.0521H40.1101H40.1683H40.2268H40.2854H40.3442H40.4032H40.4624H40.5218H40.5814H40.6412H40.7012H40.7614H40.8217H40.8823H40.943H41.0039H41.065H41.1262H41.1876H41.2492H41.311H41.373H41.4351H41.4973H41.5598H41.6224H41.6851H41.748H41.8111H41.8743H41.9377H42.0012H42.0649H42.1287H42.1926H42.2567H42.321H42.3853H42.4499H42.5145H42.5793H42.6442H42.7092H42.7744H42.8397H42.9051H42.9707H43.0363H43.1021H43.168H43.234H43.3001H43.3664H43.4327H43.4992H43.5657H43.6324H43.6991H43.766H43.8329H43.9H43.9671H44.0343H44.1017H44.1691H44.2366H44.3042H44.3718H44.4396H44.5074H44.5753H44.6433H44.7113H44.7794H44.8476H44.9159H44.9842H45.0526H45.121H45.1895H45.2581H45.3267H45.3954H45.4641H45.5329H45.6017H45.6706H45.7395H45.8085H45.8775H45.9465H46.0156H46.0847H46.1538H46.223H46.2922H46.3615H46.4307H46.5H46.5693H46.6387H46.708H46.7774H46.8468H46.9161H46.9855H47.055H47.1244H47.1938H47.2632H47.3327H47.4021H47.4715H47.541H47.6104H47.6798H47.7492H47.8186H47.888H47.9574H48.0267H48.096H48.1654H48.2346H48.3039H48.3731H48.4424H48.5115H48.5807H48.6498H48.7189H48.7879H48.8569H48.9259H48.9948H49.0637H49.1325H49.2013H49.27H49.3387H49.4073H49.4758H49.5444H49.6128H49.6812H49.7495H49.8178H49.8859H49.9541H50.0221H50.0901H50.158H50.2258H50.2935H50.3612H50.4288H50.4963H50.5637H50.631H50.6983H50.7654H50.8324H50.8994H50.9662H51.033H51.0997H51.1662H51.2327H51.299H51.3652H51.4313H51.4974H51.5633H51.629H51.6947H51.7602H51.8257H51.8909H51.9561H52.0212H52.0861H52.1509H52.2155H52.28H52.3444H52.4086H52.4727H52.5367H52.6005H52.6642H52.7277H52.7911H52.8543H52.9173H52.9803H53.043H53.1056H53.168H53.2303H53.2924H53.3543H53.4161H53.4777H53.5391H53.6004H53.6615H53.7224H53.7831H53.8436H53.904H53.9642H54.0241H54.0839H54.1435H54.2029H54.2622H54.3212H54.38H54.4386H54.497H54.5552H54.6132H54.671H54.7286H54.786H54.8432H54.9001H54.9569H55.0134H55.0697H55.1257H55.1816H55.2372H55.2926H55.3478H55.4027H55.4574H55.5118H55.5661H55.62H55.6738H55.7273H55.7805H55.8335H55.8863H55.9388H55.991H56.043H56.0948H56.1463H56.1975H56.2485H56.2992H56.3496H56.3997H56.4496H56.4993H56.5486H56.5977H56.6465H56.695H56.7432H56.7912H56.8389H56.8862H56.9333H56.9802H57.0267H57.0729H57.1188H57.1644H57.2098H57.2548H57.2995H57.3439H57.388H57.4318H57.4753H57.5185H57.5614H57.6039H57.6462H57.6881H57.7296H57.7709H57.8119H57.8525H57.8927H57.9327H57.9723H58.0116H58.0505H58.0891H58.1274H58.1653H58.2029H58.2401H58.277H58.3136H58.3497H58.3856H58.421H58.4562H58.4909H58.5253H58.5593H58.593H58.6263H58.6592H58.6918H58.724H58.7558H58.7872H58.8183H58.849H58.8793H58.9092H58.9387H58.9679H58.9966H59.025H59.0529H59.0805H59.1077H59.1345H59.1608H59.1868H59.2124H59.2376H59.2623H59.2867H59.3106H59.3341H59.3572H59.3799H59.4022H59.424H59.4454H59.4664H59.487H59.5072H59.5269H59.5462H59.565H59.5834H59.6014H59.6189H59.636H59.6527H59.6689H59.6846H59.6999H59.7148H59.7292H59.7431H59.7566H59.7697H59.7822H59.7943H59.806H59.8172H59.8279H59.8381H59.8479H59.8572H59.866H59.8743C60.6322 33.417 61.2493 34.0341 61.2493 34.792C61.2493 35.5499 60.6322 36.167 59.8743 36.167H59.866H59.8572H59.8479H59.8381H59.8279H59.8172H59.806H59.7943H59.7822H59.7697H59.7566H59.7431H59.7292H59.7148H59.6999H59.6846H59.6689H59.6527H59.636H59.6189H59.6014H59.5834H59.565H59.5462H59.5269H59.5072H59.487H59.4664H59.4454H59.424H59.4022H59.3799H59.3572H59.3341H59.3106H59.2867H59.2623H59.2376H59.2124H59.1868H59.1608H59.1345H59.1077H59.0805H59.0529H59.025H58.9966H58.9679H58.9387H58.9092H58.8793H58.849H58.8183H58.7872H58.7558H58.724H58.6918H58.6592H58.6263H58.593H58.5593H58.5253H58.4909H58.4562H58.421H58.3856H58.3497H58.3136H58.277H58.2401H58.2029H58.1653H58.1274H58.0891H58.0505H58.0116H57.9723H57.9327H57.8927H57.8525H57.8119H57.7709H57.7296H57.6881H57.6462H57.6039H57.5614H57.5185H57.4753H57.4318H57.388H57.3439H57.2995H57.2548H57.2098H57.1644H57.1188H57.0729H57.0267H56.9802H56.9333H56.8862H56.8389H56.7912H56.7432H56.695H56.6465H56.5977H56.5486H56.4993H56.4496H56.3997H56.3496H56.2992H56.2485H56.1975H56.1463H56.0948H56.043H55.991H55.9388H55.8863H55.8335H55.7805H55.7273H55.6738H55.62H55.5661H55.5118H55.4574H55.4027H55.3478H55.2926H55.2372H55.1816H55.1257H55.0697H55.0134H54.9569H54.9001H54.8432H54.786H54.7286H54.671H54.6132H54.5552H54.497H54.4386H54.38H54.3212H54.2622H54.2029H54.1435H54.0839H54.0241H53.9642H53.904H53.8436H53.7831H53.7224H53.6615H53.6004H53.5391H53.4777H53.4161H53.3543H53.2924H53.2303H53.168H53.1056H53.043H52.9803H52.9173H52.8543H52.7911H52.7277H52.6642H52.6005H52.5367H52.4727H52.4086H52.3444H52.28H52.2155H52.1509H52.0861H52.0212H51.9561H51.8909H51.8257H51.7602H51.6947H51.629H51.5633H51.4974H51.4313H51.3652H51.299H51.2327H51.1662H51.0997H51.033H50.9662H50.8994H50.8324H50.7654H50.6983H50.631H50.5637H50.4963H50.4288H50.3612H50.2935H50.2258H50.158H50.0901H50.0221H49.9541H49.8859H49.8178H49.7495H49.6812H49.6128H49.5444H49.4758H49.4073H49.3387H49.27H49.2013H49.1325H49.0637H48.9948H48.9259H48.8569H48.7879H48.7189H48.6498H48.5807H48.5115H48.4424H48.3731H48.3039H48.2346H48.1654H48.096H48.0267H47.9574H47.888H47.8186H47.7492H47.6798H47.6104H47.541H47.4715H47.4021H47.3327H47.2632H47.1938H47.1244H47.055H46.9855H46.9161H46.8468H46.7774H46.708H46.6387H46.5693H46.5H46.4307H46.3615H46.2922H46.223H46.1538H46.0847H46.0156H45.9465H45.8775H45.8085H45.7395H45.6706H45.6017H45.5329H45.4641H45.3954H45.3267H45.2581H45.1895H45.121H45.0526H44.9842H44.9159H44.8476H44.7794H44.7113H44.6433H44.5753H44.5074H44.4396H44.3718H44.3042H44.2366H44.1691H44.1017H44.0343H43.9671H43.9H43.8329H43.766H43.6991H43.6324H43.5657H43.4992H43.4327H43.3664H43.3001H43.234H43.168H43.1021H43.0363H42.9707H42.9051H42.8397H42.7744H42.7092H42.6442H42.5793H42.5145H42.4499H42.3853H42.321H42.2567H42.1926H42.1287H42.0649H42.0012H41.9377H41.8743H41.8111H41.748H41.6851H41.6224H41.5598H41.4973H41.4351H41.373H41.311H41.2492H41.1876H41.1262H41.065H41.0039H40.943H40.8823H40.8217H40.7614H40.7012H40.6412H40.5814H40.5218H40.4624H40.4032H40.3442H40.2854H40.2268H40.1683H40.1101H40.0521H39.9943H39.9367H39.8793H39.8222H39.7652H39.7085H39.652H39.5957H39.5396H39.4838H39.4282H39.3728H39.3176H39.2627H39.208H39.1535H39.0993H39.0453H38.9916H38.9381H38.8848H38.8318H38.7791H38.7266H38.6743H38.6223H38.5706H38.5191H38.4679H38.4169H38.3662H38.3158H38.2656H38.2157H38.1661H38.1168H38.0677H38.0189H37.9704H37.9221H37.8742H37.8265H37.7791H37.732H37.6852H37.6387H37.5925H37.5466H37.5009H37.4556H37.4106H37.3659H37.3214H37.2773H37.2335H37.19H37.1469H37.104H37.0614H37.0192H36.9773H36.9357H36.8945H36.8535H36.8129H36.7726H36.7327H36.6931H36.6538H36.6148H36.5762H36.538H36.5H36.4625H36.4252H36.3883H36.3518H36.3156H36.2798H36.2443H36.2092H36.1744H36.1401H36.106H36.0724H36.0391H36.0061H35.9736H35.9414H35.9096H35.8781H35.8471H35.8164H35.7861H35.7562H35.7266H35.6975H35.6687H35.6404H35.6124H35.5848H35.5577H35.5309H35.5045H35.4785H35.453H35.4278H35.4031H35.3787H35.3548H35.3312H35.3081H35.2855H35.2632H35.2413H35.2199H35.1989H35.1783H35.1582H35.1385H35.1192H35.1004H35.0819H35.064H35.0464H35.0293H35.0127H34.9965H34.9807H34.9654H34.9506H34.9362H34.9222H34.9087H34.8957H34.8831H34.871H34.8594H34.8482H34.8375H34.8272H34.8175H34.8082H34.7994H34.791C34.0332 36.167 33.416 35.5499 33.416 34.792C33.416 34.0341 34.0332 33.417 34.791 33.417Z" stroke="white" stroke-opacity="0.1" stroke-width="8"/>
<g opacity="0.35">
<path d="M59.8743 54.5C58.4912 54.5 36.1742 54.5 34.791 54.5C31.824 54.5 29.416 56.908 29.416 59.875C29.416 62.842 31.824 65.25 34.791 65.25C36.1742 65.25 58.4912 65.25 59.8743 65.25C62.8413 65.25 65.2493 62.842 65.2493 59.875C65.2493 56.908 62.8413 54.5 59.8743 54.5Z" fill="#02ABD5"/>
<path d="M34.791 58.5H34.7994H34.8082H34.8175H34.8272H34.8375H34.8482H34.8594H34.871H34.8831H34.8957H34.9087H34.9222H34.9362H34.9506H34.9654H34.9807H34.9965H35.0127H35.0293H35.0464H35.064H35.0819H35.1004H35.1192H35.1385H35.1582H35.1783H35.1989H35.2199H35.2413H35.2632H35.2855H35.3081H35.3312H35.3548H35.3787H35.4031H35.4278H35.453H35.4785H35.5045H35.5309H35.5577H35.5848H35.6124H35.6404H35.6687H35.6975H35.7266H35.7562H35.7861H35.8164H35.8471H35.8781H35.9096H35.9414H35.9736H36.0061H36.0391H36.0724H36.106H36.1401H36.1744H36.2092H36.2443H36.2798H36.3156H36.3518H36.3883H36.4252H36.4625H36.5H36.538H36.5762H36.6148H36.6538H36.6931H36.7327H36.7726H36.8129H36.8535H36.8945H36.9357H36.9773H37.0192H37.0614H37.104H37.1469H37.19H37.2335H37.2773H37.3214H37.3659H37.4106H37.4556H37.5009H37.5466H37.5925H37.6387H37.6852H37.732H37.7791H37.8265H37.8742H37.9221H37.9704H38.0189H38.0677H38.1168H38.1661H38.2157H38.2656H38.3158H38.3662H38.4169H38.4679H38.5191H38.5706H38.6223H38.6743H38.7266H38.7791H38.8318H38.8848H38.9381H38.9916H39.0453H39.0993H39.1535H39.208H39.2627H39.3176H39.3728H39.4282H39.4838H39.5396H39.5957H39.652H39.7085H39.7652H39.8222H39.8793H39.9367H39.9943H40.0521H40.1101H40.1683H40.2268H40.2854H40.3442H40.4032H40.4624H40.5218H40.5814H40.6412H40.7012H40.7614H40.8217H40.8823H40.943H41.0039H41.065H41.1262H41.1876H41.2492H41.311H41.373H41.4351H41.4973H41.5598H41.6224H41.6851H41.748H41.8111H41.8743H41.9377H42.0012H42.0649H42.1287H42.1926H42.2567H42.321H42.3853H42.4499H42.5145H42.5793H42.6442H42.7092H42.7744H42.8397H42.9051H42.9707H43.0363H43.1021H43.168H43.234H43.3001H43.3664H43.4327H43.4992H43.5657H43.6324H43.6991H43.766H43.8329H43.9H43.9671H44.0343H44.1017H44.1691H44.2366H44.3042H44.3718H44.4396H44.5074H44.5753H44.6433H44.7113H44.7794H44.8476H44.9159H44.9842H45.0526H45.121H45.1895H45.2581H45.3267H45.3954H45.4641H45.5329H45.6017H45.6706H45.7395H45.8085H45.8775H45.9465H46.0156H46.0847H46.1538H46.223H46.2922H46.3615H46.4307H46.5H46.5693H46.6387H46.708H46.7774H46.8468H46.9161H46.9855H47.055H47.1244H47.1938H47.2632H47.3327H47.4021H47.4715H47.541H47.6104H47.6798H47.7492H47.8186H47.888H47.9574H48.0267H48.096H48.1654H48.2346H48.3039H48.3731H48.4424H48.5115H48.5807H48.6498H48.7189H48.7879H48.8569H48.9259H48.9948H49.0637H49.1325H49.2013H49.27H49.3387H49.4073H49.4758H49.5444H49.6128H49.6812H49.7495H49.8178H49.8859H49.9541H50.0221H50.0901H50.158H50.2258H50.2935H50.3612H50.4288H50.4963H50.5637H50.631H50.6983H50.7654H50.8324H50.8994H50.9662H51.033H51.0997H51.1662H51.2327H51.299H51.3652H51.4313H51.4974H51.5633H51.629H51.6947H51.7602H51.8257H51.8909H51.9561H52.0212H52.0861H52.1509H52.2155H52.28H52.3444H52.4086H52.4727H52.5367H52.6005H52.6642H52.7277H52.7911H52.8543H52.9173H52.9803H53.043H53.1056H53.168H53.2303H53.2924H53.3543H53.4161H53.4777H53.5391H53.6004H53.6615H53.7224H53.7831H53.8436H53.904H53.9642H54.0241H54.0839H54.1435H54.2029H54.2622H54.3212H54.38H54.4386H54.497H54.5552H54.6132H54.671H54.7286H54.786H54.8432H54.9001H54.9569H55.0134H55.0697H55.1257H55.1816H55.2372H55.2926H55.3478H55.4027H55.4574H55.5118H55.5661H55.62H55.6738H55.7273H55.7805H55.8335H55.8863H55.9388H55.991H56.043H56.0948H56.1463H56.1975H56.2485H56.2992H56.3496H56.3997H56.4496H56.4993H56.5486H56.5977H56.6465H56.695H56.7432H56.7912H56.8389H56.8862H56.9333H56.9802H57.0267H57.0729H57.1188H57.1644H57.2098H57.2548H57.2995H57.3439H57.388H57.4318H57.4753H57.5185H57.5614H57.6039H57.6462H57.6881H57.7296H57.7709H57.8119H57.8525H57.8927H57.9327H57.9723H58.0116H58.0505H58.0891H58.1274H58.1653H58.2029H58.2401H58.277H58.3136H58.3497H58.3856H58.421H58.4562H58.4909H58.5253H58.5593H58.593H58.6263H58.6592H58.6918H58.724H58.7558H58.7872H58.8183H58.849H58.8793H58.9092H58.9387H58.9679H58.9966H59.025H59.0529H59.0805H59.1077H59.1345H59.1608H59.1868H59.2124H59.2376H59.2623H59.2867H59.3106H59.3341H59.3572H59.3799H59.4022H59.424H59.4454H59.4664H59.487H59.5072H59.5269H59.5462H59.565H59.5834H59.6014H59.6189H59.636H59.6527H59.6689H59.6846H59.6999H59.7148H59.7292H59.7431H59.7566H59.7697H59.7822H59.7943H59.806H59.8172H59.8279H59.8381H59.8479H59.8572H59.866H59.8743C60.6322 58.5 61.2493 59.1171 61.2493 59.875C61.2493 60.6329 60.6322 61.25 59.8743 61.25H59.866H59.8572H59.8479H59.8381H59.8279H59.8172H59.806H59.7943H59.7822H59.7697H59.7566H59.7431H59.7292H59.7148H59.6999H59.6846H59.6689H59.6527H59.636H59.6189H59.6014H59.5834H59.565H59.5462H59.5269H59.5072H59.487H59.4664H59.4454H59.424H59.4022H59.3799H59.3572H59.3341H59.3106H59.2867H59.2623H59.2376H59.2124H59.1868H59.1608H59.1345H59.1077H59.0805H59.0529H59.025H58.9966H58.9679H58.9387H58.9092H58.8793H58.849H58.8183H58.7872H58.7558H58.724H58.6918H58.6592H58.6263H58.593H58.5593H58.5253H58.4909H58.4562H58.421H58.3856H58.3497H58.3136H58.277H58.2401H58.2029H58.1653H58.1274H58.0891H58.0505H58.0116H57.9723H57.9327H57.8927H57.8525H57.8119H57.7709H57.7296H57.6881H57.6462H57.6039H57.5614H57.5185H57.4753H57.4318H57.388H57.3439H57.2995H57.2548H57.2098H57.1644H57.1188H57.0729H57.0267H56.9802H56.9333H56.8862H56.8389H56.7912H56.7432H56.695H56.6465H56.5977H56.5486H56.4993H56.4496H56.3997H56.3496H56.2992H56.2485H56.1975H56.1463H56.0948H56.043H55.991H55.9388H55.8863H55.8335H55.7805H55.7273H55.6738H55.62H55.5661H55.5118H55.4574H55.4027H55.3478H55.2926H55.2372H55.1816H55.1257H55.0697H55.0134H54.9569H54.9001H54.8432H54.786H54.7286H54.671H54.6132H54.5552H54.497H54.4386H54.38H54.3212H54.2622H54.2029H54.1435H54.0839H54.0241H53.9642H53.904H53.8436H53.7831H53.7224H53.6615H53.6004H53.5391H53.4777H53.4161H53.3543H53.2924H53.2303H53.168H53.1056H53.043H52.9803H52.9173H52.8543H52.7911H52.7277H52.6642H52.6005H52.5367H52.4727H52.4086H52.3444H52.28H52.2155H52.1509H52.0861H52.0212H51.9561H51.8909H51.8257H51.7602H51.6947H51.629H51.5633H51.4974H51.4313H51.3652H51.299H51.2327H51.1662H51.0997H51.033H50.9662H50.8994H50.8324H50.7654H50.6983H50.631H50.5637H50.4963H50.4288H50.3612H50.2935H50.2258H50.158H50.0901H50.0221H49.9541H49.8859H49.8178H49.7495H49.6812H49.6128H49.5444H49.4758H49.4073H49.3387H49.27H49.2013H49.1325H49.0637H48.9948H48.9259H48.8569H48.7879H48.7189H48.6498H48.5807H48.5115H48.4424H48.3731H48.3039H48.2346H48.1654H48.096H48.0267H47.9574H47.888H47.8186H47.7492H47.6798H47.6104H47.541H47.4715H47.4021H47.3327H47.2632H47.1938H47.1244H47.055H46.9855H46.9161H46.8468H46.7774H46.708H46.6387H46.5693H46.5H46.4307H46.3615H46.2922H46.223H46.1538H46.0847H46.0156H45.9465H45.8775H45.8085H45.7395H45.6706H45.6017H45.5329H45.4641H45.3954H45.3267H45.2581H45.1895H45.121H45.0526H44.9842H44.9159H44.8476H44.7794H44.7113H44.6433H44.5753H44.5074H44.4396H44.3718H44.3042H44.2366H44.1691H44.1017H44.0343H43.9671H43.9H43.8329H43.766H43.6991H43.6324H43.5657H43.4992H43.4327H43.3664H43.3001H43.234H43.168H43.1021H43.0363H42.9707H42.9051H42.8397H42.7744H42.7092H42.6442H42.5793H42.5145H42.4499H42.3853H42.321H42.2567H42.1926H42.1287H42.0649H42.0012H41.9377H41.8743H41.8111H41.748H41.6851H41.6224H41.5598H41.4973H41.4351H41.373H41.311H41.2492H41.1876H41.1262H41.065H41.0039H40.943H40.8823H40.8217H40.7614H40.7012H40.6412H40.5814H40.5218H40.4624H40.4032H40.3442H40.2854H40.2268H40.1683H40.1101H40.0521H39.9943H39.9367H39.8793H39.8222H39.7652H39.7085H39.652H39.5957H39.5396H39.4838H39.4282H39.3728H39.3176H39.2627H39.208H39.1535H39.0993H39.0453H38.9916H38.9381H38.8848H38.8318H38.7791H38.7266H38.6743H38.6223H38.5706H38.5191H38.4679H38.4169H38.3662H38.3158H38.2656H38.2157H38.1661H38.1168H38.0677H38.0189H37.9704H37.9221H37.8742H37.8265H37.7791H37.732H37.6852H37.6387H37.5925H37.5466H37.5009H37.4556H37.4106H37.3659H37.3214H37.2773H37.2335H37.19H37.1469H37.104H37.0614H37.0192H36.9773H36.9357H36.8945H36.8535H36.8129H36.7726H36.7327H36.6931H36.6538H36.6148H36.5762H36.538H36.5H36.4625H36.4252H36.3883H36.3518H36.3156H36.2798H36.2443H36.2092H36.1744H36.1401H36.106H36.0724H36.0391H36.0061H35.9736H35.9414H35.9096H35.8781H35.8471H35.8164H35.7861H35.7562H35.7266H35.6975H35.6687H35.6404H35.6124H35.5848H35.5577H35.5309H35.5045H35.4785H35.453H35.4278H35.4031H35.3787H35.3548H35.3312H35.3081H35.2855H35.2632H35.2413H35.2199H35.1989H35.1783H35.1582H35.1385H35.1192H35.1004H35.0819H35.064H35.0464H35.0293H35.0127H34.9965H34.9807H34.9654H34.9506H34.9362H34.9222H34.9087H34.8957H34.8831H34.871H34.8594H34.8482H34.8375H34.8272H34.8175H34.8082H34.7994H34.791C34.0332 61.25 33.416 60.6329 33.416 59.875C33.416 59.1171 34.0332 58.5 34.791 58.5Z" stroke="white" stroke-opacity="0.1" stroke-width="8"/>
</g>
<path d="M11.5 43.7497H7.91667C3.95708 43.7497 0.75 40.5426 0.75 36.583V32.9997C0.75 29.0401 3.95708 25.833 7.91667 25.833H11.5C15.4596 25.833 18.6667 29.0401 18.6667 32.9997V36.583C18.6667 40.5426 15.4596 43.7497 11.5 43.7497Z" fill="#02ABD5"/>
<path d="M11.5 39.7497H7.91667C6.16622 39.7497 4.75 38.3335 4.75 36.583V32.9997C4.75 31.2492 6.16622 29.833 7.91667 29.833H11.5C13.2504 29.833 14.6667 31.2492 14.6667 32.9997V36.583C14.6667 38.3335 13.2504 39.7497 11.5 39.7497Z" stroke="white" stroke-opacity="0.1" stroke-width="8"/>
<path d="M11.5 18.6667H7.91667C3.95708 18.6667 0.75 15.4596 0.75 11.5V7.91667C0.75 3.95708 3.95708 0.75 7.91667 0.75H11.5C15.4596 0.75 18.6667 3.95708 18.6667 7.91667V11.5C18.6667 15.4596 15.4596 18.6667 11.5 18.6667Z" fill="#02ABD5"/>
<path d="M11.5 14.6667H7.91667C6.16622 14.6667 4.75 13.2504 4.75 11.5V7.91667C4.75 6.16622 6.16622 4.75 7.91667 4.75H11.5C13.2504 4.75 14.6667 6.16622 14.6667 7.91667V11.5C14.6667 13.2504 13.2504 14.6667 11.5 14.6667Z" stroke="white" stroke-opacity="0.1" stroke-width="8"/>
<g opacity="0.35">
<path d="M11.5 68.8337H7.91667C3.95708 68.8337 0.75 65.6266 0.75 61.667V58.0837C0.75 54.1241 3.95708 50.917 7.91667 50.917H11.5C15.4596 50.917 18.6667 54.1241 18.6667 58.0837V61.667C18.6667 65.6266 15.4596 68.8337 11.5 68.8337Z" fill="#02ABD5"/>
<path d="M11.5 64.8337H7.91667C6.16622 64.8337 4.75 63.4174 4.75 61.667V58.0837C4.75 56.3332 6.16622 54.917 7.91667 54.917H11.5C13.2504 54.917 14.6667 56.3332 14.6667 58.0837V61.667C14.6667 63.4174 13.2504 64.8337 11.5 64.8337Z" stroke="white" stroke-opacity="0.1" stroke-width="8"/>
</g>
</svg>
