<svg width="58" height="72" viewBox="0 0 58 72" fill="none" xmlns="http://www.w3.org/2000/svg">
<g opacity="0.35">
<path d="M0.333984 61.0837V10.917C0.333984 4.97941 5.1464 0.166992 11.084 0.166992H36.1673L57.6673 21.667V61.0837C57.6673 67.0212 52.8549 71.8337 46.9173 71.8337H11.084C5.1464 71.8337 0.333984 67.0212 0.333984 61.0837Z" fill="#02ABD5"/>
<path d="M4.33398 61.0837V10.917C4.33398 7.18855 7.35554 4.16699 11.084 4.16699H34.5105L53.6673 23.3238V61.0837C53.6673 64.8121 50.6458 67.8337 46.9173 67.8337H11.084C7.35554 67.8337 4.33398 64.8121 4.33398 61.0837Z" stroke="white" stroke-opacity="0.1" stroke-width="8"/>
</g>
<path d="M36.166 14.5003V0.166992L57.666 21.667H43.3327C39.3731 21.667 36.166 18.4599 36.166 14.5003Z" fill="#02ABD5"/>
<path d="M40.166 14.5003V9.82385L48.0092 17.667H43.3327C41.5822 17.667 40.166 16.2508 40.166 14.5003Z" stroke="white" stroke-opacity="0.1" stroke-width="8"/>
<mask id="path-5-inside-1_485_81" fill="white">
<path d="M39.7493 39.5837H18.2493C16.2678 39.5837 14.666 37.9783 14.666 36.0003C14.666 34.0223 16.2678 32.417 18.2493 32.417H39.7493C41.7309 32.417 43.3327 34.0223 43.3327 36.0003C43.3327 37.9783 41.7309 39.5837 39.7493 39.5837Z"/>
</mask>
<path d="M39.7493 39.5837H18.2493C16.2678 39.5837 14.666 37.9783 14.666 36.0003C14.666 34.0223 16.2678 32.417 18.2493 32.417H39.7493C41.7309 32.417 43.3327 34.0223 43.3327 36.0003C43.3327 37.9783 41.7309 39.5837 39.7493 39.5837Z" fill="#02ABD5"/>
<path d="M39.7493 31.5837H18.2493V47.5837H39.7493V31.5837ZM18.2493 31.5837C20.6913 31.5837 22.666 33.5653 22.666 36.0003H6.66602C6.66602 42.3914 11.8443 47.5837 18.2493 47.5837V31.5837ZM22.666 36.0003C22.666 38.4354 20.6913 40.417 18.2493 40.417V24.417C11.8443 24.417 6.66602 29.6093 6.66602 36.0003H22.666ZM18.2493 40.417H39.7493V24.417H18.2493V40.417ZM39.7493 40.417C37.3074 40.417 35.3327 38.4354 35.3327 36.0003H51.3327C51.3327 29.6093 46.1544 24.417 39.7493 24.417V40.417ZM35.3327 36.0003C35.3327 33.5653 37.3074 31.5837 39.7493 31.5837V47.5837C46.1544 47.5837 51.3327 42.3914 51.3327 36.0003H35.3327Z" fill="white" fill-opacity="0.1" mask="url(#path-5-inside-1_485_81)"/>
<mask id="path-7-inside-2_485_81" fill="white">
<path d="M32.5827 53.9167H18.2493C16.2678 53.9167 14.666 52.3113 14.666 50.3333C14.666 48.3553 16.2678 46.75 18.2493 46.75H32.5827C34.5643 46.75 36.166 48.3553 36.166 50.3333C36.166 52.3113 34.5643 53.9167 32.5827 53.9167Z"/>
</mask>
<path d="M32.5827 53.9167H18.2493C16.2678 53.9167 14.666 52.3113 14.666 50.3333C14.666 48.3553 16.2678 46.75 18.2493 46.75H32.5827C34.5643 46.75 36.166 48.3553 36.166 50.3333C36.166 52.3113 34.5643 53.9167 32.5827 53.9167Z" fill="#02ABD5"/>
<path d="M32.5827 45.9167H18.2493V61.9167H32.5827V45.9167ZM18.2493 45.9167C20.6913 45.9167 22.666 47.8983 22.666 50.3333H6.66602C6.66602 56.7244 11.8443 61.9167 18.2493 61.9167V45.9167ZM22.666 50.3333C22.666 52.7684 20.6913 54.75 18.2493 54.75V38.75C11.8443 38.75 6.66602 43.9423 6.66602 50.3333H22.666ZM18.2493 54.75H32.5827V38.75H18.2493V54.75ZM32.5827 54.75C30.1408 54.75 28.166 52.7684 28.166 50.3333H44.166C44.166 43.9423 38.9878 38.75 32.5827 38.75V54.75ZM28.166 50.3333C28.166 47.8983 30.1408 45.9167 32.5827 45.9167V61.9167C38.9878 61.9167 44.166 56.7244 44.166 50.3333H28.166Z" fill="white" fill-opacity="0.1" mask="url(#path-7-inside-2_485_81)"/>
</svg>
