<svg width="58" height="76" viewBox="0 0 58 76" fill="none" xmlns="http://www.w3.org/2000/svg">
<g opacity="0.35">
<path d="M45.7241 52.5019C52.9481 47.2953 57.6673 38.8351 57.6673 29.2497C57.6673 13.4185 44.8318 0.583008 29.0007 0.583008C13.1695 0.583008 0.333984 13.4185 0.333984 29.2497C0.333984 38.8351 5.05324 47.2953 12.2772 52.5019L14.5813 61.4997H43.42L45.7241 52.5019Z" fill="#02ABD5"/>
<path d="M43.3853 49.2569L42.2088 50.1048L41.8491 51.5096L40.3152 57.4997H17.6861L16.1522 51.5096L15.7925 50.1048L14.616 49.2569C8.3829 44.7645 4.33398 37.4862 4.33398 29.2497C4.33398 15.6276 15.3786 4.58301 29.0007 4.58301C42.6227 4.58301 53.6673 15.6276 53.6673 29.2497C53.6673 37.4862 49.6184 44.7645 43.3853 49.2569Z" stroke="white" stroke-opacity="0.1" stroke-width="8"/>
</g>
<path d="M41.817 67.7493L43.4187 61.5H14.5801L16.1782 67.7493C17.3966 72.5044 21.6822 75.8333 26.5914 75.8333H31.4038C36.3166 75.8333 40.6022 72.5044 41.817 67.7493Z" fill="#02ABD5"/>
<path d="M37.9422 66.7562L37.9415 66.7593C37.1793 69.7426 34.4896 71.8333 31.4038 71.8333H26.5914C23.5112 71.8333 20.8194 69.7443 20.0535 66.7583C20.0535 66.758 20.0534 66.7578 20.0533 66.7575C20.0532 66.7572 20.0532 66.7569 20.0531 66.7565L19.7317 65.5H38.2642L37.9422 66.7562Z" stroke="white" stroke-opacity="0.1" stroke-width="8"/>
</svg>
